<svg xmlns="http://www.w3.org/2000/svg" xml:space="preserve" fill-rule="evenodd" stroke-linejoin="round" stroke-miterlimit="2" clip-rule="evenodd" viewBox="0 0 216 139">
  <path fill="#fff" fill-rule="nonzero" d="M72 2c-19 0-35 9-47 19C6 36 7 54 7 69c0 13 3 23 9 31 7 17 37 30 51 32s49 0 64-31c16-31 13-65-22-88C96 5 83 2 72 2Zm76 33-2 1c-2 1-2 6-1 7l4 7-5-7c-3 8 5 22 8 28 2 6 13 18 13 18l4-10 1-1c-2 4-4 13-3 14 1 2 23 19 26 20 4 1 7 0 9-2 1-3-2-9-3-10l-4-3-2-20c-1-6-7-10-7-10l-7 4 7-6-16-20c-4-6-16-10-22-10Z"/>
  <path fill="#bc8042" d="M95 127c-7 2-30 2-37 1-3 0-7-1-13-4-15-9-27-22-33-38l-2-18c-2-15-1-19 4-28C26 14 54 0 81 6c20 3 38 14 49 31 4 6 9 19 8 20h-15l-6-2v-3c0-4-1-7-2-7-2 0-2 3-2 6 1 3 1 3-1 2l-5-3c-3-3-8-5-10-4l-1 2c0 2 1 3 6 4l7 4 9 5 5 1-4 4h2l3-2 4-1c2 0 3 0 2 1 0 2 2 2 4 0l3-1 1 6c0 9-1 16-3 16-3 1-5 0-9-3-3-2-3-2-3 0l1 4c2 1 2 1 0 3l-2 3 5-1h6l-5 9c-12 19-18 24-33 27Zm13-25c0 3 2 1 4-2 1-3 1-5-1-5l-3 7Zm-27-6c1 1 2-1 2-4l1-4-2 2c-2 2-2 5-1 6Zm-55-4c2 2 4 1 3 0-3-9-3-10-4-7-1 2 0 5 1 7Zm15-27c6 3 7 0 1-4-5-3-6-6-5-10 0-2-1-3-2-1l-1 5c0 4 2 8 7 10Zm2-28c0 3 2 3 2 0l2-5c1-2 1-2-1-2s-4 5-3 7Zm-15-5c0 3 1 2 4-2l3-4v-1h-1c-3 0-6 5-6 7Zm19-12 3-2 4-3c4-2 4-4 0-3-5 1-9 5-7 8Zm21-6 1 1 2-1-1-1-2 1Z"/>
  <path fill-rule="nonzero" d="m194 138-6-2-6-1c-2-1 4-3 8-2h3l-3-2c-2-2-4-2-6-2-4 0-4 0-2-1l2-1v-2l-4-2c-2 0-3-1-1-2l1-1-1-4c0-2-1-2-2-2-2 0-2-1-2-2l2-1c2 0 3-1 3-4 0-2-1-3-3-3-4-2-11-8-16-15l-4-6-5 5c0 2-1 3-2 1s-3-1-5 2c-1 3-4 3-3 1 1-1 0-1-1-1l-4 6c-9 16-17 25-28 31l-6 3h5c6 0 7 1 3 3H54c-5 2-9 2-10 0-2-2-2-2 0-3l2-1-5-4c-7-4-19-15-23-21l-5-4c-2 1-3-1-2-2s1-3-1-7c-4-8-4-11-5-25-1-8 0-17 2-25l-2 1H1c-2-1-1-1 3-3l10-10 4-6-2-1c-5-1-4-3 1-2 4 0 4 0 10-5 3-2 5-5 5-6l1-1 8-2c12-6 15-7 28-7 18 0 30 3 45 12 11 7 20 18 25 31l1 3 1-3c1-7 5-10 11-10 4 0 13 4 18 7 5 4 11 11 14 18l4 5c8 8 12 21 9 32-1 1 0 2 2 2l4 5 2 4h10c2 1 0 3-5 3h-5l5 2 6 4c0 2-3 1-8-1-4-2-5-2-6-1-2 2-6 2-9 1-2-1-2-1-1 2 0 1 2 3 5 4 6 3 9 7 9 11-1 2-4 1-6-2l-5-5c-4-3-8-9-7-12 0-1-1-4-2-3l-1 4c0 4 0 5 3 8l7 6c3 2 4 3 4 6s0 4-2 5h-3Zm-99-11c15-3 21-8 33-27l5-9h-6l-5 1 2-3c2-2 2-2 0-3l-1-4c0-2 0-2 3 0 4 3 6 4 9 3 2 0 3-7 3-16l-1-6-3 1c-2 2-4 2-4 0 1-1 0-1-2-1l-4 1-3 2h-2l4-4-5-1-9-5-7-4c-5-1-6-2-6-4l1-2c2-1 7 1 10 4l5 3c2 1 2 1 1-2 0-3 0-6 2-6 1 0 2 3 2 7v3l6 2h15c1-1-4-14-8-20A69 69 0 0 0 81 6c-27-6-55 8-67 34-5 9-6 13-4 28l2 18c6 16 18 29 33 38 6 3 10 4 13 4 7 1 30 1 37-1Zm13-25 3-7c2 0 2 2 1 5-2 3-4 5-4 2Zm-27-6c-1-1-1-4 1-6l2-2-1 4c0 3-1 5-2 4Zm-55-4c-1-2-2-5-1-7 1-3 1-2 4 7 1 1-1 2-3 0Zm15-27c-5-2-7-6-7-10l1-5c1-2 2-1 2 1-1 4 0 7 5 10 6 4 5 7-1 4Zm2-28c-1-2 1-7 3-7s2 0 1 2l-2 5c0 3-2 3-2 0Zm-15-5c0-2 3-7 6-7h1v1l-3 4c-3 4-4 5-4 2Zm19-12c-2-3 2-7 7-8 4-1 4 1 0 3l-4 3-3 2Zm21-6 2-1 1 1-2 1-1-1Zm131 95c2-1 2-3 0-6-3-4-4-4-6 0l-3 3c-2 0-1 2 2 3 4 2 5 2 7 0Zm-15-21c2-2 3 0 3 7v6l2-2c2-2 2-3 2-12 0-7 0-10-2-13-1-4-2-4-4-4-8 2-16 11-16 18 0 3 1 4 6 9l5 6 2-7 2-8Zm-36-6 5-3c1-1-6-13-8-16-1-1-1 1-2 8l-1 14 6-3Zm18 0c1-3 1-4-6-13l-9-9c-2 0-2-1 3 8 3 6 4 6 6 6 3-1 4 1 2 4l1 4 2 3 1-3Zm7-11 7-5 3-2-14-18c-5-4-13-8-19-8-4-1-4-1-4 1-1 2 0 4 3 9l7 10c2 5 11 17 12 17l5-4Zm-23-17-5-9 1 5c0 3 1 4 2 4h2Zm12 81c-5-2-3-2 5-2 9 0 13 1 10 2h-15Zm-146-1c-1-2 1-4 3-4s2 1 0 3-2 2-3 1Zm8 0c-1-2 1-4 3-5 3-1 3 0 1 3s-4 4-4 2Zm9-1c0-2 4-5 5-4s-3 6-4 6l-1-2Zm85 1c-2-1-1-2 3-4s5-2 5 0-6 6-8 4Zm25 0c-1-1 1-2 5-2 5 0 7 1 5 2h-10Zm-14-1c0-2 3-4 4-3s-2 4-3 4l-1-1Z"/>
</svg>
