<svg xmlns="http://www.w3.org/2000/svg" xml:space="preserve" fill-rule="evenodd" stroke-linejoin="round" stroke-miterlimit="2" clip-rule="evenodd" viewBox="0 0 151 218">
  <path fill="#fff" fill-rule="nonzero" d="m67 3 2 47 8 1-1 24-13 2-3 15s-9-12-18-11c-9 2-17 14-16 21 0 7 6 24 8 37s1 32 0 38c0 5-1 16 14 18 14 1 24-9 27-13 3-5 9-27 9-27l61 2 2-79h-11l2-25-9-2-2-47-60-1ZM30 23c-4 0-12 0-18 3C2 37 3 52 8 65s19 12 27 8 16-16 15-25c-2-15-10-25-20-25Z"/>
  <path fill="#bc8042" d="M93 152H78l-12-1v-3l1-18 9 7 12 11 5 4Zm50-28v29h-12l-13-1 3-1 4-1c1-4 0-4-11-3h-11l-7-5c-8-5-17-12-25-21l-5-5-1-18V79h30l1 9c0 8 0 9 9 8 9 1 10 1 10-8v-8h21c8 0 9 1 8 7l-1 37Zm-15 14h9c2-1 1-1 1-7 0-3-1-7-3-6-2 0-13-2-13 1l11 2c3 0 3 0 3 4v3l-7-1h-8l-1-6-1-5-1 7c0 4-2 7 2 7l8 1Zm-2-5h4c4 0 3-2-2-2-3 0-5 1-2 2Zm0-11h12c2-2-1-3-8-3-6 0-8 1-8 2l4 1Zm6-50H79v-3c0-2 1-3 2-2s16 3 18 2v-4l1-5c1-1-3-2-11-3h-7l-1 3-1 4-1-5v-6l34 2 20 1 1 8-2 8Zm-7-27c0 1 1 4-2 4l-7-1h-5l2-2 5-4c2-1 4-3 4-5 2-2 2-2-1-5-4-5-5 0-10 4l-7 8 3 2-16 1H71V35l-2-22c0-8-2-10 8-9l9 2 1 5v5h18v-5l1-4h9c10-1 10-2 10 7v31ZM75 31v8h7c5 0 6-1 6-2l-5-1h-5v-8h4l6-1h-8c-2 0-2 0-2-2s0-2 8-2l7-1-7-1c-10 0-10 1-11 10Zm14 4c0 2 1 1 2 0 1-2 0-12-1-10s-2 9-1 10Zm-9-3c-1 2 0 2 3 2 2 0 3 0 2-1l-1-2c1-1 0-1-2-1l-2 2Z"/>
  <path fill-rule="nonzero" d="M38 216c-1-1-1-3 1-12l2-8-4-2c-3-3-7-10-7-15l1-12c3-14 1-23-5-42-4-14-4-15-4-22 1-10 5-19 13-22 3-2 12-2 17 1l4 3c2 2 3 0 3-4 1-6 3-8 9-9l5-1V52h-3c-6 1-5-2-6-25V5c0-4 2-5 3-5l30 1c27 0 28 0 30 2s3 7 5 32c1 14 1 14 3 14 5 0 8 7 7 18l-1 6 4 1 4 2c2 2 2 75 0 80-1 3-3 4-8 4l-7 1-6 3-8 2c-6 3-15-1-16-6l-10-1-9-1-1 7-3 13c-3 5-9 12-13 15-2 1-2 2-2 5 2 8 1 12-2 12s-4-3-3-8c0-5 0-5-2-5l-6 1-5 1-1 7c-3 10-4 11-6 11l-3-1Zm21-27c10-4 19-15 21-28v-3l-7-1c-8 0-12-1-12-5l-1-24-1-7-12-12C36 98 32 92 33 91h2l23 18c1 0 1-14-1-17-2-5-8-8-14-8s-9 2-12 8c-4 8-4 13 2 30l6 20c2 8 1 24-1 33-2 8-2 12 2 13l2 2 2-4c1-5 5-4 5 2l1 3s5 0 9-2Zm84-65 1-37c1-6 0-7-8-7h-21v8c0 9-1 9-10 8-9 1-9 0-9-8l-1-9H65v19l1 18 5 5c8 9 17 16 25 21l7 5h11c11-1 12-1 11 3l-4 1-3 1 13 1h12v-29Zm-15 14-8-1c-4 0-2-3-2-7l1-7 1 5 1 6h8l7 1v-3c0-4 0-4-3-4l-11-2c0-3 11-1 13-1 2-1 3 3 3 6 0 6 1 6-1 7h-9Zm-2-5c-3-1-1-2 2-2 5 0 6 2 2 2h-4Zm0-11-4-1c0-1 2-2 8-2 7 0 10 1 8 3h-12Zm-33 30-5-4-12-11-9-7-1 18v3l12 1h15Zm10-65c-1-7-1-7-3-7l-2-1v6l1 9h2c2 0 2 0 2-7Zm7 3 1-7 1-4-3 1-4 1 3 13c1 0 2 0 2-4Zm22-18 2-8-1-8-20-1-34-2v6l1 5 1-4 1-3h7c8 1 12 2 11 3l-1 5v4c-2 1-17-1-18-2s-2 0-2 2v3h53Zm-40-7h-9l7 1h6l-4-1Zm4-3-12-1c0 1 3 2 10 2 2 0 3 0 2-1Zm29-17V14c0-9 0-8-10-7h-9l-1 4v5H87v-5l-1-5-9-2c-10-1-8 1-8 9l2 22v12h20l16-1-3-2 7-8c5-4 6-9 10-4 3 3 3 3 1 5 0 2-2 4-4 5l-5 4-2 2h5l7 1c3 0 2-3 2-4ZM75 31c1-9 1-10 11-10l7 1-7 1c-8 0-8 0-8 2s0 2 2 2h8l-6 1h-4v8h5l5 1c0 1-1 2-6 2h-7v-8Zm14 4c-1-1 0-8 1-10s2 8 1 10c-1 1-2 2-2 0Zm-9-3 2-2c2 0 3 0 2 1l1 2c1 1 0 1-2 1-3 0-4 0-3-2Zm35 7c5-4 5-5 4-6s-1-1-3 2l-5 5-2 4c1 0 4-2 6-5ZM94 9c0-3 0-3-2-3s-2 0-2 2c0 3 0 4 3 4l1-3Zm8 0c0-2 0-2-3-2-2 0-2 0-2 2s0 3 3 2l2-2ZM2 54l-2-4c-1-7 0-18 10-25 11-7 29-8 34 6l5-3c4-2 6-2 7-1 3 1 2 4-3 6l-4 2 4 13c0 3 0 3 2 3 6 1 3 4-2 4l-3 7c-3 6-7 11-16 14C11 84 3 65 2 54Zm31 18c5-3 12-9 13-17-4 0-5-4 1-5 1-4-1-11-4-11l-8 3L9 53c-3 1 0 11 3 15 6 7 16 5 21 4Zm-8-6c-1-1 0-4 3-2 1 0 3 1 2 2l-2 1-3-1Zm4-14c-1-2 0-4 1-4 2-1 3 3 2 5-1 1-3 1-3-1Zm7-4 2-4c1 0 2 1 2 3l-1 2-3-1Zm-23-2 27-13c-10-15-30-5-33 5-2 3-2 11-1 10l7-2Z"/>
</svg>
