<svg xmlns="http://www.w3.org/2000/svg" viewBox="0 0 174.7 128.8">
  <path fill="#FFF" d="M105 1c-6 0-18 5-24 8L59 23c-6 4-23 8-32 9-8 1-14 1-24-4-4 0-2 2 0 4l8 8-3 1 4 6s1 3 12 5c12 1 28-4 28-4s-2 25-1 31c1 5 9 14 9 14s25 26 31 29c5 2 22 11 55-5 33-15 27-51 27-58-1-7-7-23-15-32-7-10-16-16-20-17s-28-9-33-9zm15 50s5 11 5 18-4 19-8 18c-5-1-10-7-10-15-1-8 5-18 13-21z" paint-order="fill markers stroke"/>
  <path d="m102 128-9-3c-9-4-37-31-41-39l-3-8c-2-6-2-21-1-24l1-3-3 1H12c-2-1-2-2-1-4 0-1 0-2-2-3-3-1-3-3-2-4 2-1 2-1-1-3-2-1-5-5-5-7s1-1 3 1l6 5c4 2 4 4 1 4l-2 1 3 2 2 3c0 2 3 3 10 3 9 0 17-1 27-5 11-3 14-5 33-17 21-14 30-18 40-18l5-1-7-2-13-3c-6-1-6-1-15 2-11 4-16 6-25 12-20 14-31 18-48 17-10-1-14-2-18-6-5-4-4-4 2-1l14 2 16-1c7-1 19-7 31-14C79 7 81 6 92 3c10-4 14-4 25-1 20 4 29 8 37 16 9 9 15 20 19 33 2 7 2 23 1 30-4 17-16 34-31 41-11 6-29 8-41 6zm27-6c17-4 30-15 38-32 7-16 6-37-4-53-3-6-11-15-16-19-8-5-20-7-30-4-13 3-21 8-29 18-7 9-9 12-13 22-3 8-3 9-3 19 0 13 1 19 6 29 3 7 10 15 16 18 8 4 24 5 35 2zm-16-21c-9-4-12-10-15-22-3-14 5-31 15-38 6-4 11-6 16-4 20 7 22 31 17 46-5 13-12 19-23 20-5 0-6 0-10-2zm16-4c7-3 13-11 15-22 2-10-1-22-7-28-5-7-11-8-20-3-7 3-11 8-14 15-5 12 0 33 10 39l9 1 7-2zm-11-3c-4-1-9-8-12-13-2-6-1-15 1-20 6-14 22-21 31-6 3 5 4 10 2 18-1 12-5 18-13 21h-9zm9-4c4-2 5-4 8-9l2-12c0-7-1-8-3-12-2-5-5-7-9-7-3 0-4 1-2 3 4 5 6 20 3 27-1 3-2 6-4 7-2 3-3 3-1 3h6zm-6-11c3-6 2-20-1-25-2-3-2-1-5 1-4 6-8 13-5 24 2 3 2 5 4 5 3 1 5-1 7-5zm-47 22a65 65 0 0 1 4-63l-7 4-12 6c-7 3-7 3-7 15 0 9 2 18 4 23 1 2 19 20 20 19l-2-4zM54 39l6-10v2l-4 7c-2 4-3 4-2 1z"/>
</svg>
