<svg xmlns="http://www.w3.org/2000/svg" xml:space="preserve" fill-rule="evenodd" stroke-linejoin="round" stroke-miterlimit="2" clip-rule="evenodd" viewBox="0 0 174 174">
  <path fill="#fff" fill-rule="nonzero" d="M53 51s7-34 13-40 10-6 12-5l11 7s8-11 16-10c7 1 13 27 13 27v19l-1 16 52-12-8 97-79 21-74-31 1-86 43 10 1-13Z"/>
  <path fill="#bc8042" d="M104 4c5 0 8 8 10 25l1 16c1 1-2 1-23 1l-31 1-6 1 1-3 3-10C63 19 70 7 75 7c1 0 4 2 6 5 7 7 8 7 14-2 3-3 7-6 9-6Z"/>
  <path fill-rule="nonzero" d="M105 0h-3c-3 1-10 6-12 9-2 4-3 1-6-1-4-6-5-6-11-6-4 0-11 9-16 19l-5 16-3 11-4 1c-4 1-6 1-5 3l6 2h5v4l-2 4-5-1-37-8v2L6 65 5 82v7H3c-2 0-3 2-3 4l2 2h2l-1 1c-3 2-3 4 0 6 3 1 3 1 1 2-2 0-2 3 0 5 2 1 2 2 1 10l2 23h2l5 2 17 8c16 6 32 13 47 21l33-7c18-4 36-9 53-15 1-1 2-11 2-25v-10l3-2c3-3 3-5 1-5-1-1-1-1 1-2 3-2 3-4 0-5-3 0-3 0 0-2 2 0 2-4 0-4l-2-2 1-43-13 3-23 6-15 2v-9h6l7-1c1-2 1-3-1-4l-4-1-5-1-1-8c-2-22-4-28-8-34-3-3-5-4-8-4Zm-1 4c5 0 8 8 10 25l1 16c1 1-2 1-23 1l-31 1-6 1 1-3 3-10C63 19 70 7 75 7c1 0 4 2 6 5 7 7 8 7 14-2 3-3 7-6 9-6Zm11 49v4l-1 6-9 2c0-1-5-3-5 2l-7 2-6 2-5-2-15-3-12-3 1-4v-5l12-1h47Zm-20 1h-2v6c0 2 2 2 3 2 3-1 2-3 2-5s-2-3-3-3Zm13 0h-2c-2 1-1 4-1 6 1 2 2 2 4 2 2-1 2-3 2-5l-3-3Zm59 1-2 20-1 20-3 1c-3 0-5 1-5 3 0 3 0 3 4 3s4 2 1 3c-4 1-5 6-1 6l2 1-3 1c-3 3-3 6 1 6l1 1v11c0 12-1 16-4 17a1623 1623 0 0 0-71 20l-1-3V92l1-17 16-4c3 5 7 1 5-2l15-3 37-8 8-3ZM11 56l5 1c21 7 42 13 64 17l4 1-2 16a560 560 0 0 0 0 75l-1 1-12-5c-19-9-38-17-58-24l-1-21c1-3 1-4 3-4 1 0 2 0 2-2 1-1 0-2-2-3l-2-2h3c3 1 4-1 4-3l-4-4-3-2 3 1c3 0 5-1 5-3s-1-3-5-4l-4-1v-7l1-27Zm7 10v1c2 2 9 4 30 9 4 0 10 2 15 4 8 3 10 3 10 2-1-1-12-5-25-8l-30-8Zm138 2-4 2h4l1-1-1-1Zm-9 3-13 3h8l6-2-1-1Zm-20 5-10 2-14 2-11 3 2 1 33-8ZM18 76h-1l5 2c7 1 15 3 22 7l23 8 3-1-4-2-24-8c-6-3-20-7-24-6Zm137 2-1 1 1 1 1-1-1-1Zm-6 1-7 1-13 4h4c3 0 6 0 15-3 3-1 4-2 1-2ZM18 85l7 3 36 11 8 2c1-1 0-1-8-4-23-7-42-13-43-12Zm105 1h-5l-6 1-8 2c-6 1-10 3-7 3l24-5-3 31-11 3-10 2c-1 0-2-9-1-19V93c-3 1-2 23-2 27 1 6 0 6 13 3l12-3c2 0 2-3 3-6V97l1-11Zm27 4-20 4-2 3h2l20-6v-1ZM30 97h-1c-1 1 1 1 3 2l9 3 6 1c-2-2-13-5-17-6Zm119 4-18 4c-3 0-5 1-4 2l1 1 23-7h-2Zm-100 4v1c-1 0-2 4-2 11l-2 12-2-1-20-6 25 10v-4l1-11v-12Zm7 3c-2 0-1 1 3 2l6 1-9-3Zm94 2-24 5v2h2l22-7Zm-95 4h-1 1Zm1 7h-1l5 3c4 1 8 2 9 1l-3-2-10-2Zm91 2-11 2-15 3c-13 3-25 6-26 8l4-1 25-6c14-2 24-5 24-6h-1Zm-126 5h-1l4 2 14 6-17-8Zm128 2-7 1 7-1Zm-90 1c-2 0-2 1 1 2h5l-6-2Zm-33 5 8 4 11 5 11 4 10 4h4l-13-6-13-5-18-6Z"/>
</svg>
