<svg xmlns="http://www.w3.org/2000/svg" xml:space="preserve" fill-rule="evenodd" stroke-linejoin="round" stroke-miterlimit="2" clip-rule="evenodd" viewBox="0 0 400 400">
  <path fill="#fff" d="M313 24c12 1 20 3 26 8l12 6 3 2 4 3 5 4c5 3 11 12 15 20l2 3 3 10c3 9 2 28-2 37a59 59 0 0 1-42 33l-7-15c-3-17 3-29 19-34 5-2 7-4 7-7 0-11-19-7-30 6-8 9-10 15-10 28 0 11 5 25 11 34l3 4 4 7c7 9 12 19 15 29l1 4c3 6 4 12 5 19 2 8 2 15 1 23l-1 7v3a78 78 0 0 1-19 47c-6 7-17 17-27 24-5 3-5 1 0-11l2-8 3-14 1-5a135 135 0 0 0-63-129l-3-3-6-8-4-5c-5-8-8-16-10-25l-1-6-1-5 1-24c2-13 8-26 17-36 13-14 30-23 48-26h18ZM151 92c9 2 12 7 12 16 0 17-19 26-28 14-9-11-4-26 9-30h7Zm-8 12c-5 3-5 11-1 14 6 4 14-5 10-12-2-3-7-4-9-2Zm-39-9c5 3 8 9 7 17-1 5-3 10-6 11-7 3-18 2-20-2l-1-2c-3-3-2-11 0-16 4-7 13-11 20-8Zm-10 9c-7 3-6 16 2 15 4 0 6-3 6-8v-3l-1-2c-2-3-4-3-7-2Zm40 60c1 3 0 9-2 10-4 2-8-2-8-8v-2h2l4-1c3-1 3-1 4 1Zm-30-2 4 1 6 2-1 13c-1 4-5 4-7 0-2-3-4-4-6 0-3 6-7 2-9-11-1-4-1-4 1-6 4-2 3-2 6-1l6 2Zm-23 6 2 5c1 7 4 14 9 19l7 5c1 1 1 1-1 2-2 2-2 2-4 0l-1-1c-3 0-17-28-16-31 1-2 3-1 4 1Zm74 10c2 1 2 3 1 4l-11 11c-3 3-16 5-18 3s7-14 13-17c5-2 12-3 15-1Z"/>
  <path fill="#fff" d="M96 39c2 2 3 3 6 10l3 7 1 8c1 5 5 7 11 5l14-2 21 1 6 1c8 3 12 1 12-6 0-4 1-5 4-12 4-8 10-12 12-9 5 5 3 16-6 31-4 6-4 10 1 14 3 3 7 8 11 17 3 5 6 15 7 21 2 11 1 23-1 34-1 4 3 6 7 4 2-1 4-2 7-1l4 1c10 2 19 6 27 11l14 9c8 6 15 12 21 19l6 8 5 8a851 851 0 0 0 13 34l2 12c2 24-3 47-13 69-4 5-4 8-1 15l3 8c0 2-4 3-23 4-16 0-31 1-47 3h-8c-7 1-8 0-4-2 5-2 6-4 5-6-2-3-5-3-12-1-6 2-12 6-12 8l-5 2c-12 0 3-14 17-17l21-1c19-1 20-1 21-3 1-3-1-6-7-9l-11-8c-7-6-12-15-14-25a52 52 0 0 1 30-58c3-2 4-2 9-2 7-1 8 0 15 4 8 6 8 6 10 6 3-1 5-4 4-7s-8-9-14-12c-5-3-16-5-20-3l-5 1-15 7c-13 11-21 20-24 30l-4 14v6c-1 11 1 22 6 32 1 3 3 7 6 10 4 3 3 3-3 4h-9l-9 1-4-1-1-5c0-8-1-10-5-16-3-5-11-13-14-15s-3-3 3-8c5-6 5-9-3-12-5-3-8-2-10 4l-5 7-3-1-14-3c-3-1-3-1 0-3l7-5c4-4 5-5 11-5 10-1 20-3 30-7 13-5 22-12 28-21l5-6c2-2 8-14 9-19 3-9 2-13-3-15-3-1-4 1-7 8-3 10-9 20-16 28-2 2-12 10-18 13-9 4-20 7-30 7-6 0-9 1-15 7-9 8-14 9-18 6-2-2-1-4 3-6 5-3 7-6 5-9h-11c-9 2-13-3-5-5l13-4c5-1 5-4 2-7l-2-3v-2c2-6 9-6 13 1 5 8 8 9 15 8 8-3 15-7 22-12l14-14c2-3 5-7 5-10l2-5c3-8 2-14-3-15-4 0-5 2-8 11-4 11-10 19-20 26l-15 7-2-2c-4-9-16-14-23-10l-3 1h-1c-3-2-6-7-6-11v-3c-1-2 1-3 4-2 1 1 5 2 11 2 19 2 42-17 51-42s4-37-13-30l-11 6c-17 11-39 15-51 10-5-2-5-3 3-10 6-6 7-8 6-12l1-2c2-4 7-11 6-12v-2c3-11-2-24-10-28-15-7-29 0-36 18-2 3-1 14 0 18 3 5 3 5 1 6l-1 4c0 4 0 4 8 11 8 8 8 9 2 11-5 2-18-3-18-7l-2-4c-2-4-2-4-2-10v-16c2-8 8-21 15-29l3-4 2-1 9-6c6-3 8-8 4-13l-6-12c-1-2 0-13 1-14s4-1 6 1Zm51 42-3 1c-17 3-27 23-21 40 5 13 24 18 37 10 17-10 19-35 4-46-4-3-16-6-17-5Z"/>
  <path fill="#bc8042" d="M134 296c10 2 20 7 28 13 9 5 14 16 12 23 0 2-2 2-8-1l-10-5-20-9-19-8c-8-3-9-5-4-9 4-5 12-6 21-4Zm-20 25 6 3 11 4 23 11c5 2 5 3 2 7-4 6-15 14-19 14l-4 1-12 2c-2 0-3-1-4-3l-3-5c-6-10-8-20-4-30 1-5 2-5 4-4Zm-34 5c3 8 1 20-5 30l-7 8-15-2c-8-3-11-5-16-10-2-1-6-7-6-10 0-1 1-2 7-4l6-3 7-3 27-9 2 3Zm-10-28c6 2 13 8 12 10 0 1-4 3-12 5-13 4-26 8-39 14l-10 4c-6 3-6 2-7-2-1-5 5-15 13-20l3-3 3-1 10-4 4-2 6-1h17Zm31-60c2 2 1 6 0 6-8 4-10 14-4 19 3 3 1 7-7 17-2 4-3 4-7 2h-5l-6-1-6-2c-5-2-10-5-13-10l-3-4c-3-4-4-9 0-10l5-2c15-6 30-11 46-15Zm-11-26c5 2 8 3 10 6 4 4 4 6 0 6l-4 2-5 1-9 3-7 3-5 1-7 3-23 10c-7 3-8 2-8-4s4-13 10-18l4-3 7-4 4-2 12-4 5-1c3-1 13 0 16 1Z"/>
  <path fill="#040404" d="m295 8-4 1c-10 2-21 6-30 11-13 7-12 6-21 15-5 4-9 9-12 14l-2 4a99 99 0 0 0-1 97l-4-1-3-1c-5 0-5 0-4-11a96 96 0 0 0-19-58l1-3c7-11 10-21 8-28-4-17-10-25-18-24s-11 3-16 9c-5 4-10 12-12 18-1 3-1 3-3 3-3-2-28-2-34-1l-3-4-3-8-5-10c-6-5-9-7-15-9-9-3-17 2-20 13-2 7-2 14 0 21l3 9 1 2-4 4-13 12c-6 9-10 19-13 30l-1 5c-1 7-1 13 1 20 2 1-1 3-4 3l-6 2h-3l-3 2c-7 3-9 9-4 13 2 2 7 2 10 1l9-3 5-1c2-1 2-1 3 1l2 2 4 6 1 2 1 5 6 16 5 9c1 1 1 1-1 2l-5 1c-9 1-9 1-12-3l-4-8c-2-5-6-6-11-3-10 7-12 12-6 17l3 2 2 3c1 1 1 1-2 3-6 4-11 10-15 16l-4 9c-2 3-2 9-1 14 1 7 6 13 13 14 3 0 2-1 6 7 2 5 4 8 8 12l2 3c-2 1-3 1-6-4-7-10-10-12-15-7-7 9-7 12-1 16 3 2 3 2-2 5l-10 7c-5 5-9 10-12 16-2 5-2 16 1 22 2 5 5 7 12 7 4 0 4 0 4 2 3 10 19 24 31 27l12 2c9 5 17 2 19-7l5-9c3-4 5-9 6-14l1-5c2-4 1-14 0-20l-2-4 2-1 3-6c1-3 1-3 1-1l2 2v5l-2 4-1 5v18c1 6 4 13 10 22l1 3c1 7 9 10 17 7l6-2 7-1 4-1 18-10 7-8 3-4 2-3 2 1h2l-1 1-2 3c-5 5-6 15-3 19s7 5 15 5l25-1 33-1 22-1h4l23-2c10 1 16-4 17-13l-2-11c-1-2-1-2 2-2l10-4c13-7 24-17 33-29l6-8 2-4c3-3 6-11 8-16l4-19c2-9 2-17 2-26v-8l-3-20-3-11-3-9-12-23c-4-6-5-7-2-7l2-1 4-1c16-4 37-24 40-39l2-6 1-5 1-24c-1-11-4-21-10-30l-3-4-5-7-2-3c-5-6-11-11-18-15a93 93 0 0 0-54-18l-13-1m18 16c12 1 20 3 26 8l12 6 3 2 4 3 5 4c5 3 11 12 15 20l2 3 3 10c3 9 2 28-2 37a59 59 0 0 1-42 33l-7-15c-3-17 3-29 19-34 5-2 7-4 7-7 0-11-19-7-30 6-8 9-10 15-10 28 0 11 5 25 11 34l3 4 4 7c7 9 12 19 15 29l1 4c3 6 4 12 5 19 2 8 2 15 1 23l-1 7v3a78 78 0 0 1-19 47c-6 7-17 17-27 24-5 3-5 1 0-11l2-8 3-14 1-5a135 135 0 0 0-63-129l-3-3-6-8-4-5c-5-8-8-16-10-25l-1-6-1-5 1-24c2-13 8-26 17-36 13-14 30-23 48-26h18M96 39c2 2 3 3 6 10l3 7 1 8c1 5 5 7 11 5l14-2 21 1 6 1c8 3 12 1 12-6 0-4 1-5 4-12 4-8 10-12 12-9 5 5 3 16-6 31-4 6-4 10 1 14 3 3 7 8 11 17 3 5 6 15 7 21 2 11 1 23-1 34-1 4 3 6 7 4 2-1 4-2 7-1l4 1c10 2 19 6 27 11l14 9c8 6 15 12 21 19l6 8 5 8a851 851 0 0 0 13 34l2 12c2 24-3 47-13 69-4 5-4 8-1 15l3 8c0 2-4 3-23 4-16 0-31 1-47 3h-8c-7 1-8 0-4-2 5-2 6-4 5-6-2-3-5-3-12-1-6 2-12 6-12 8l-5 2c-12 0 3-14 17-17l21-1c19-1 20-1 21-3 1-3-1-6-7-9l-11-8c-7-6-12-15-14-25a52 52 0 0 1 30-58c3-2 4-2 9-2 7-1 8 0 15 4 8 6 8 6 10 6 3-1 5-4 4-7s-8-9-14-12c-5-3-16-5-20-3l-5 1-15 7c-13 11-21 20-24 30l-4 14v6c-1 11 1 22 6 32 1 3 3 7 6 10 4 3 3 3-3 4h-9l-9 1-4-1-1-5c0-8-1-10-5-16-3-5-11-13-14-15s-3-3 3-8c5-6 5-9-3-12-5-3-8-2-10 4l-5 7-3-1-14-3c-3-1-3-1 0-3l7-5c4-4 5-5 11-5 10-1 20-3 30-7 13-5 22-12 28-21l5-6c2-2 8-14 9-19 3-9 2-13-3-15-3-1-4 1-7 8-3 10-9 20-16 28-2 2-12 10-18 13-9 4-20 7-30 7-6 0-9 1-15 7-9 8-14 9-18 6-2-2-1-4 3-6 5-3 7-6 5-9h-11c-9 2-13-3-5-5l13-4c5-1 5-4 2-7l-2-3v-2c2-6 9-6 13 1 5 8 8 9 15 8 8-3 15-7 22-12l14-14c2-3 5-7 5-10l2-5c3-8 2-14-3-15-4 0-5 2-8 11-4 11-10 19-20 26l-15 7-2-2c-4-9-16-14-23-10l-3 1h-1c-3-2-6-7-6-11v-3c-1-2 1-3 4-2 1 1 5 2 11 2 19 2 42-17 51-42s4-37-13-30l-11 6c-17 11-39 15-51 10-5-2-5-3 3-10 6-6 7-8 6-12l1-2c2-4 7-11 6-12v-2c3-11-2-24-10-28-15-7-29 0-36 18-2 3-1 14 0 18 3 5 3 5 1 6l-1 4c0 4 0 4 8 11 8 8 8 9 2 11-5 2-18-3-18-7l-2-4c-2-4-2-4-2-10v-16c2-8 8-21 15-29l3-4 2-1 9-6c6-3 8-8 4-13l-6-12c-1-2 0-13 1-14s4-1 6 1m51 42-3 1c-17 3-27 23-21 40 5 13 24 18 37 10 17-10 19-35 4-46-4-3-16-6-17-5M19 84c-7 3-6 13 1 16 5 1 10 4 14 9 5 4 11 4 15-2v-7c-2-3-11-10-16-12-9-5-10-5-14-4m132 8c9 2 12 7 12 16 0 17-19 26-28 14-9-11-4-26 9-30h7m-47 3c5 3 8 9 7 17-1 5-3 10-6 11-7 3-18 2-20-2l-1-2c-3-3-2-11 0-16 4-7 13-11 20-8m-10 9c-7 3-6 16 2 15 4 0 6-3 6-8v-3l-1-2c-2-3-4-3-7-2m49 0c-5 3-5 11-1 14 6 4 14-5 10-12-2-3-7-4-9-2m-133 9c-3 2-4 4-4 7 0 5 4 8 11 8h4l6 2 7 1h9c2-1 3-6 2-9-2-3-8-6-18-7l-5-1c-2-1-11-2-12-1m94 49 4 1 6 2-1 13c-1 4-5 4-7 0-2-3-4-4-6 0-3 6-7 2-9-11-1-4-1-4 1-6 4-2 3-2 6-1l6 2m30 2c1 3 0 9-2 10-4 2-8-2-8-8v-2h2l4-1c3-1 3-1 4 1m-53 4 2 5c1 7 4 14 9 19l7 5c1 1 1 1-1 2-2 2-2 2-4 0l-1-1c-3 0-17-28-16-31 1-2 3-1 4 1m74 10c2 1 2 3 1 4l-11 11c-3 3-16 5-18 3s7-14 13-17c5-2 12-3 15-1m-65 34c5 2 8 3 10 6 4 4 4 6 0 6l-4 2-5 1-9 3-7 3-5 1-7 3-23 10c-7 3-8 2-8-4s4-13 10-18l4-3 7-4 4-2 12-4 5-1c3-1 13 0 16 1m11 26c2 2 1 6 0 6-8 4-10 14-4 19 3 3 1 7-7 17-2 4-3 4-7 2h-5l-6-1-6-2c-5-2-10-5-13-10l-3-4c-3-4-4-9 0-10l5-2c15-6 30-11 46-15m8 44 2 1c2 1 2 1 0 2-6 3-14 14-15 19l-2-5-1-2h1l9-9 4-7c0-1 1-1 2 1m25 14c10 2 20 7 28 13 9 5 14 16 12 23 0 2-2 2-8-1l-10-5-20-9-19-8c-8-3-9-5-4-9 4-5 12-6 21-4m-64 2c6 2 13 8 12 10 0 1-4 3-12 5-13 4-26 8-39 14l-10 4c-6 3-6 2-7-2-1-5 5-15 13-20l3-3 3-1 10-4 4-2 6-1h17m44 23 6 3 11 4 23 11c5 2 5 3 2 7-4 6-15 14-19 14l-4 1-12 2c-2 0-3-1-4-3l-3-5c-6-10-8-20-4-30 1-5 2-5 4-4m-34 5c3 8 1 20-5 30l-7 8-15-2c-8-3-11-5-16-10-2-1-6-7-6-10 0-1 1-2 7-4l6-3 7-3 27-9 2 3"/>
</svg>
